<mxfile host="app.diagrams.net" modified="2023-05-24T06:36:28.444Z" agent="Mozilla/5.0 (Windows NT 10.0; Win64; x64) AppleWebKit/537.36 (KHTML, like Gecko) Chrome/113.0.0.0 Safari/537.36" etag="HygKsmqbwtim3MWAXezI" version="21.3.2" type="device">
  <diagram name="Page-1" id="jGU1oLOlpTaHm6FRcaB2">
    <mxGraphModel dx="1050" dy="581" grid="1" gridSize="10" guides="1" tooltips="1" connect="1" arrows="1" fold="1" page="1" pageScale="1" pageWidth="850" pageHeight="1100" math="0" shadow="0">
      <root>
        <mxCell id="0" />
        <mxCell id="1" parent="0" />
        <mxCell id="ZHOyQUik_aSdYhFszNrT-1" value="&lt;b&gt;localhost:3000&lt;/b&gt;" style="text;html=1;strokeColor=none;fillColor=none;align=center;verticalAlign=middle;whiteSpace=wrap;rounded=0;" vertex="1" parent="1">
          <mxGeometry x="395" y="70" width="60" height="30" as="geometry" />
        </mxCell>
        <mxCell id="ZHOyQUik_aSdYhFszNrT-2" value="AppModule" style="rounded=0;whiteSpace=wrap;html=1;" vertex="1" parent="1">
          <mxGeometry x="365" y="140" width="120" height="60" as="geometry" />
        </mxCell>
        <mxCell id="ZHOyQUik_aSdYhFszNrT-4" value="rental.controller" style="rounded=0;whiteSpace=wrap;html=1;" vertex="1" parent="1">
          <mxGeometry x="365" y="240" width="120" height="60" as="geometry" />
        </mxCell>
        <mxCell id="ZHOyQUik_aSdYhFszNrT-7" value="rental.service" style="rounded=0;whiteSpace=wrap;html=1;" vertex="1" parent="1">
          <mxGeometry x="365" y="340" width="120" height="60" as="geometry" />
        </mxCell>
        <mxCell id="ZHOyQUik_aSdYhFszNrT-8" value="car.model" style="rounded=0;whiteSpace=wrap;html=1;" vertex="1" parent="1">
          <mxGeometry x="278" y="450" width="120" height="60" as="geometry" />
        </mxCell>
        <mxCell id="ZHOyQUik_aSdYhFszNrT-9" value="bike.model" style="rounded=0;whiteSpace=wrap;html=1;" vertex="1" parent="1">
          <mxGeometry x="453" y="450" width="120" height="60" as="geometry" />
        </mxCell>
        <mxCell id="ZHOyQUik_aSdYhFszNrT-10" value="vehicle.interface" style="rounded=0;whiteSpace=wrap;html=1;" vertex="1" parent="1">
          <mxGeometry x="363" y="560" width="120" height="60" as="geometry" />
        </mxCell>
        <mxCell id="ZHOyQUik_aSdYhFszNrT-11" value="" style="endArrow=classic;html=1;rounded=0;exitX=0.5;exitY=1;exitDx=0;exitDy=0;entryX=0.5;entryY=0;entryDx=0;entryDy=0;" edge="1" parent="1" source="ZHOyQUik_aSdYhFszNrT-1" target="ZHOyQUik_aSdYhFszNrT-2">
          <mxGeometry width="50" height="50" relative="1" as="geometry">
            <mxPoint x="550" y="150" as="sourcePoint" />
            <mxPoint x="600" y="100" as="targetPoint" />
          </mxGeometry>
        </mxCell>
        <mxCell id="ZHOyQUik_aSdYhFszNrT-12" value="" style="endArrow=classic;html=1;rounded=0;exitX=0.5;exitY=1;exitDx=0;exitDy=0;entryX=0.5;entryY=0;entryDx=0;entryDy=0;" edge="1" parent="1" source="ZHOyQUik_aSdYhFszNrT-2" target="ZHOyQUik_aSdYhFszNrT-4">
          <mxGeometry width="50" height="50" relative="1" as="geometry">
            <mxPoint x="550" y="250" as="sourcePoint" />
            <mxPoint x="600" y="200" as="targetPoint" />
          </mxGeometry>
        </mxCell>
        <mxCell id="ZHOyQUik_aSdYhFszNrT-13" value="" style="endArrow=classic;html=1;rounded=0;exitX=0.5;exitY=1;exitDx=0;exitDy=0;entryX=0.5;entryY=0;entryDx=0;entryDy=0;" edge="1" parent="1" source="ZHOyQUik_aSdYhFszNrT-4" target="ZHOyQUik_aSdYhFszNrT-7">
          <mxGeometry width="50" height="50" relative="1" as="geometry">
            <mxPoint x="540" y="360" as="sourcePoint" />
            <mxPoint x="590" y="310" as="targetPoint" />
          </mxGeometry>
        </mxCell>
        <mxCell id="ZHOyQUik_aSdYhFszNrT-14" value="" style="endArrow=classic;html=1;rounded=0;exitX=0.5;exitY=1;exitDx=0;exitDy=0;entryX=0.447;entryY=-0.017;entryDx=0;entryDy=0;entryPerimeter=0;" edge="1" parent="1" source="ZHOyQUik_aSdYhFszNrT-7" target="ZHOyQUik_aSdYhFszNrT-8">
          <mxGeometry width="50" height="50" relative="1" as="geometry">
            <mxPoint x="520" y="430" as="sourcePoint" />
            <mxPoint x="570" y="380" as="targetPoint" />
            <Array as="points">
              <mxPoint x="425" y="420" />
              <mxPoint x="332" y="420" />
            </Array>
          </mxGeometry>
        </mxCell>
        <mxCell id="ZHOyQUik_aSdYhFszNrT-15" value="" style="endArrow=classic;html=1;rounded=0;entryX=0.435;entryY=-0.017;entryDx=0;entryDy=0;entryPerimeter=0;" edge="1" parent="1" target="ZHOyQUik_aSdYhFszNrT-9">
          <mxGeometry width="50" height="50" relative="1" as="geometry">
            <mxPoint x="420" y="420" as="sourcePoint" />
            <mxPoint x="640" y="390" as="targetPoint" />
            <Array as="points">
              <mxPoint x="505" y="420" />
            </Array>
          </mxGeometry>
        </mxCell>
        <mxCell id="ZHOyQUik_aSdYhFszNrT-16" value="" style="endArrow=classic;html=1;rounded=0;exitX=0.5;exitY=1;exitDx=0;exitDy=0;entryX=0.5;entryY=0;entryDx=0;entryDy=0;" edge="1" parent="1" source="ZHOyQUik_aSdYhFszNrT-9" target="ZHOyQUik_aSdYhFszNrT-10">
          <mxGeometry width="50" height="50" relative="1" as="geometry">
            <mxPoint x="540" y="600" as="sourcePoint" />
            <mxPoint x="590" y="550" as="targetPoint" />
            <Array as="points">
              <mxPoint x="513" y="540" />
              <mxPoint x="423" y="540" />
            </Array>
          </mxGeometry>
        </mxCell>
        <mxCell id="ZHOyQUik_aSdYhFszNrT-17" value="" style="endArrow=none;html=1;rounded=0;entryX=0.44;entryY=0.997;entryDx=0;entryDy=0;entryPerimeter=0;" edge="1" parent="1" target="ZHOyQUik_aSdYhFszNrT-8">
          <mxGeometry width="50" height="50" relative="1" as="geometry">
            <mxPoint x="430" y="540" as="sourcePoint" />
            <mxPoint x="310" y="550" as="targetPoint" />
            <Array as="points">
              <mxPoint x="331" y="540" />
            </Array>
          </mxGeometry>
        </mxCell>
      </root>
    </mxGraphModel>
  </diagram>
</mxfile>
